<?xml version="1.0" standalone="no"?>
<!DOCTYPE svg PUBLIC "-//W3C//DTD SVG 20010904//EN"
 "http://www.w3.org/TR/2001/REC-SVG-20010904/DTD/svg10.dtd">
<svg version="1.0" xmlns="http://www.w3.org/2000/svg"
 width="267.000000pt" height="218.000000pt" viewBox="0 0 267.000000 218.000000"
 preserveAspectRatio="xMidYMid meet">
<g transform="translate(0.000000,218.000000) scale(0.100000,-0.100000)"
fill="#000000" stroke="none">
<path d="M385 2150 c-34 -11 -79 -35 -101 -54 -49 -42 -98 -143 -120 -248 -31
-144 18 -306 171 -563 48 -82 52 -105 35 -196 -6 -30 -19 -105 -30 -168 -23
-132 -39 -163 -136 -256 -56 -53 -68 -73 -104 -160 -50 -123 -76 -204 -85
-271 -6 -46 -4 -54 20 -82 51 -61 86 -35 96 68 4 44 17 90 38 135 34 74 46 87
106 114 43 19 231 71 258 71 20 0 21 -23 5 -117 -6 -38 -8 -85 -4 -105 9 -48
71 -139 158 -233 l70 -75 62 0 c57 0 106 18 106 39 0 18 -43 51 -79 61 -50 13
-141 110 -141 150 0 29 53 117 114 189 21 25 48 66 61 92 l24 46 132 8 c73 4
149 13 169 20 34 12 47 11 126 -12 49 -14 93 -29 98 -33 12 -11 -10 -182 -35
-270 -22 -80 -26 -219 -7 -238 7 -7 39 -12 75 -12 49 0 64 4 71 18 13 23 -2
59 -27 67 -32 10 -26 50 20 146 108 224 148 269 238 269 22 0 52 5 66 10 23 9
33 6 76 -26 27 -20 56 -49 64 -65 16 -31 349 -307 454 -377 57 -38 69 -42 126
-42 65 0 95 17 95 53 0 21 -49 47 -88 47 -23 0 -45 17 -108 83 -103 106 -134
146 -186 243 l-42 79 -4 181 c-5 202 -2 215 67 287 47 50 74 63 146 72 71 9
79 14 110 76 l24 47 -24 36 c-86 126 -109 152 -157 177 -37 19 -38 20 -38 79
0 50 -3 60 -20 65 -16 5 -35 -7 -85 -53 -35 -33 -90 -74 -122 -91 -32 -18 -83
-52 -113 -77 -94 -78 -133 -96 -199 -95 -58 0 -244 25 -576 76 -155 24 -187
26 -365 21 -107 -3 -222 -9 -255 -12 -59 -6 -61 -5 -115 35 -75 56 -106 101
-135 194 -40 126 -51 207 -37 273 24 118 65 166 149 180 43 7 72 -4 110 -39
26 -23 49 -17 64 17 16 35 5 68 -38 110 -61 59 -124 69 -228 36z"/>
</g>
</svg>
